<?xml version="1.0" standalone="no"?>
<svg xmlns:xlink="http://www.w3.org/1999/xlink" id="wave" style="transform:rotate(0deg); transition: 0.3s" viewBox="0 0 1440 100" version="1.1" xmlns="http://www.w3.org/2000/svg"><defs><linearGradient id="sw-gradient-0" x1="0" x2="0" y1="1" y2="0"><stop stop-color="rgba(0, 0.144, 255, 1)" offset="0%"/><stop stop-color="rgba(255, 255, 255, 1)" offset="100%"/></linearGradient></defs><path style="transform:translate(0, 0px); opacity:1" fill="url(#sw-gradient-0)" d="M0,20L24,20C48,20,96,20,144,18.3C192,17,240,13,288,10C336,7,384,3,432,10C480,17,528,33,576,33.3C624,33,672,17,720,10C768,3,816,7,864,21.7C912,37,960,63,1008,70C1056,77,1104,63,1152,51.7C1200,40,1248,30,1296,21.7C1344,13,1392,7,1440,18.3C1488,30,1536,60,1584,63.3C1632,67,1680,43,1728,35C1776,27,1824,33,1872,38.3C1920,43,1968,47,2016,40C2064,33,2112,17,2160,13.3C2208,10,2256,20,2304,33.3C2352,47,2400,63,2448,66.7C2496,70,2544,60,2592,46.7C2640,33,2688,17,2736,20C2784,23,2832,47,2880,55C2928,63,2976,57,3024,50C3072,43,3120,37,3168,38.3C3216,40,3264,50,3312,45C3360,40,3408,20,3432,10L3456,0L3456,100L3432,100C3408,100,3360,100,3312,100C3264,100,3216,100,3168,100C3120,100,3072,100,3024,100C2976,100,2928,100,2880,100C2832,100,2784,100,2736,100C2688,100,2640,100,2592,100C2544,100,2496,100,2448,100C2400,100,2352,100,2304,100C2256,100,2208,100,2160,100C2112,100,2064,100,2016,100C1968,100,1920,100,1872,100C1824,100,1776,100,1728,100C1680,100,1632,100,1584,100C1536,100,1488,100,1440,100C1392,100,1344,100,1296,100C1248,100,1200,100,1152,100C1104,100,1056,100,1008,100C960,100,912,100,864,100C816,100,768,100,720,100C672,100,624,100,576,100C528,100,480,100,432,100C384,100,336,100,288,100C240,100,192,100,144,100C96,100,48,100,24,100L0,100Z"/></svg>